**ABCDEFGHIJKLMNOPQRSTUVWXYZabcdefghijklmnopqrstuvwxyz**************************
**PARASOLID !"#$%&'()*+,-./:;<=>?@[\]^_`{|}~0123456789**************************
**PART1;
MC=AMD64;
MC_MODEL=Intel64 Family 6 Model 60 Stepping 3, GenuineIntel;
MC_ID=unknown;
OS=Windows_NT;
OS_RELEASE=unknown;
FRU=Parasolid Version 28.0, build 191,  8-24-2015;
APPL=SOLIDWORKS 2016-2015334;
SITE=;
USER=unknown;
FORMAT=text;
GUISE=transmit;
KEY=Z Axis Bed REV003;
FILE=Z Axis Bed REV003.x_t;
DATE=Wed Aug 24 21:37:28 2016;
**PART2;
SCH=SCH_2800191_28002;
USFLD_SIZE=0;
**PART3;
**END_OF_HEADER*****************************************************************
T51 : TRANSMIT FILE created by modeller version 280019123 SCH_2800191_28002_1300
6200 0 12 30 CCCCCCCCCCCCCDI5 owner1040 0 CCCCCCCCCA13 boundary_mesh1006 0 A16 i
ndex_map_offset0 0 1 dA9 index_map82 0 A17 node_id_index_map82 0 A20 schema_embe
dding_map82 0 A5 child12 0 A14 lowest_node_id0 0 1 dZ1 1831 2 3 4 0 0 0 1e3 1e-8
 0 5 0 1 0 1 1 6 7 8 9 10 11 12 0 0 0 0 0 0 0 81 255 2 2 1270 13 1 0 0 0 0 14 0
 70 11 CI9 list_type0 0 1 uI10 notransmit0 0 1 lCCCDCCDI12 finger_index0 0 1 dI1
2 finger_block1012 0 CZ3 0 4 T1 0 0 3 20 1 15 15 50 255 4 791 0 1 16 0 0 +0 .004
064 0 0 -1 0 0 0 -1 13 255 6 94 0 1 0 17 0 0 18 0 51 255 7 761 0 19 20 0 0 +-.06
25 .00635 .0625 0 -1 0 .001 0 0 -1 30 255 8 668 0 11 21 0 0 -.0625 .00635 .0635
 0 -1 0 29 255 9 876 0 12 22 0 .0508 0 .0508 19 8 CCCCCCCA5 owner12 0 Z10 28 0 1
 18 0 23 V0 16 255 11 804 0 ?24 0 25 8 0 0 1 18 255 12 874 0 26 0 27 9 ?1 17 255
 26 0 28 29 30 12 31 32 0 33 -18 27 795 0 34 12 35 22 ?1 17 34 0 36 37 38 27 39
 40 0 41 -18 35 628 0 24 27 42 43 ?1 29 22 797 0 27 43 9 -.0625 .004064 .0635 29
 43 630 0 35 44 22 .0625 .00635 .0635 29 44 627 0 42 45 43 -.0625 .00635 .0635 1
8 42 625 0 46 35 47 44 ?1 29 45 624 0 47 48 44 .0635 .00635 -.0625 18 47 622 0 4
9 42 50 45 ?1 29 48 621 0 50 51 45 .0635 .00635 .0625 18 50 619 0 52 47 53 48 ?1
 29 51 608 0 53 54 48 -.0625 .00635 -.0635 18 53 606 0 55 50 56 51 ?1 29 54 605
 0 56 57 51 .0625 .00635 -.0635 18 56 603 0 58 53 59 54 ?1 29 57 554 0 59 60 54
 -.0635 .00635 .0625 18 59 552 0 61 56 62 57 ?1 29 60 551 0 62 63 57 -.0635 .006
35 -.0625 18 62 549 0 64 59 65 60 ?1 29 63 1188 0 65 66 60 -.0508 .004064 .0508
 18 65 994 0 67 62 68 63 ?1 29 66 1189 0 68 69 63 -.0508 .004064 -.0508 18 68 99
5 0 70 65 71 66 ?1 29 69 1190 0 71 72 66 .0508 .004064 -.0508 18 71 996 0 73 68
 74 69 ?1 29 72 1191 0 75 76 69 -.0635 .004064 .0625 18 75 993 0 37 77 78 72 ?1
 29 76 1192 0 77 79 72 -.0625 .004064 -.0635 18 77 991 0 80 81 75 76 ?1 29 79 11
93 0 81 82 76 .0625 .004064 -.0635 18 81 990 0 83 84 77 79 ?1 29 82 1194 0 84 85
 79 .0635 .004064 -.0625 18 84 989 0 86 87 81 82 ?1 29 85 1195 0 87 88 82 .0635
 .004064 .0625 18 87 988 0 89 74 84 85 ?1 29 88 1196 0 74 90 85 .0625 .004064 .0
635 18 74 987 0 38 71 87 88 ?1 29 90 1198 0 78 91 88 -.0635 .00406400000000007 -
.0625 18 78 992 0 92 75 93 90 ?1 29 91 1199 0 93 94 90 .0508 .00406400000000007
 .0508 18 93 997 0 95 78 96 91 ?1 29 94 1209 0 96 97 91 .0508 0 -.0508 18 96 100
9 0 98 93 99 94 ?1 29 97 1210 0 99 100 94 -.0508 0 -.0508 18 99 1008 0 101 96 10
2 97 ?1 29 100 1211 0 102 0 97 -.0508 0 .0508 18 102 1007 0 30 99 0 100 ?1 17 30
 0 28 26 67 102 103 104 0 105 +15 255 28 1106 0 30 106 0 17 67 0 28 30 29 65 107
 108 0 109 -17 103 0 110 70 105 65 30 104 0 0 -16 104 971 0 ?30 111 112 113 0 0
 1 17 105 0 110 103 101 102 114 115 0 31 -15 110 1110 0 101 116 0 17 101 0 110 1
05 70 99 117 111 0 118 +17 114 0 119 120 31 99 105 115 0 0 +16 115 972 0 ?114 12
1 32 122 0 0 1 17 31 0 119 114 123 102 26 32 0 0 +15 119 872 0 123 124 0 17 123
 0 119 31 120 12 125 126 0 0 +16 32 967 0 ?31 115 126 127 0 0 1 16 126 982 0 ?12
3 32 0 128 0 0 1 30 127 1175 0 32 128 122 0 +-.0508 0 .0508 -1 0 0 30 128 1176 0
 126 129 127 0 +.0508 0 -.0508 0 0 1 30 122 1174 0 115 127 130 0 +-.0508 0 -.050
8 0 0 -1 30 130 1173 0 121 122 131 0 +-.0508 0 -.0508 1 0 0 16 121 977 0 ?120 11
2 115 130 0 0 1 30 131 1172 0 132 130 133 0 +.0508 .185955122421383 -.0508 0 -1
 0 16 132 981 0 ?98 108 111 131 0 0 1 30 133 1171 0 111 131 113 0 +-.0508 .18595
5122421383 -.0508 0 -1 0 16 111 976 0 ?101 132 104 133 0 0 1 30 113 1170 0 104 1
33 134 0 +-.0508 .185955122421383 .0508 0 -1 0 30 134 1169 0 112 113 135 0 +.050
8 .185955122421383 .0508 0 -1 0 16 112 966 0 ?33 104 121 134 0 0 1 30 135 1152 0
 108 134 136 0 +-.0508 .004064 .0508 1 0 0 16 108 965 0 ?107 137 132 135 0 0 1 3
1 255 136 1151 0 138 135 139 0 --.0583 .004064 .0583 0 -1 0 0 0 -1 .0017 16 138
 985 0 ?140 141 142 136 0 0 1 31 139 1150 0 141 136 143 0 -.0583 .004064 -.0125
 0 -1 0 0 0 -1 .0017 16 141 956 0 ?144 145 138 139 0 0 1 31 143 1149 0 145 139 1
46 0 --.03331 .004064 -.0583 0 -1 0 0 0 -1 .0017 16 145 955 0 ?147 148 141 143 0
 0 1 31 146 1148 0 148 143 149 0 --.0583 .004064 -.0583 0 -1 0 0 0 -1 .0017 16 1
48 954 0 ?150 151 145 146 0 0 1 31 149 1147 0 151 146 152 0 --.0565 .004064 -.04
79999999999973 0 -1 0 0 0 -1 .0017 16 151 953 0 ?153 154 148 149 0 0 1 31 152 11
46 0 154 149 155 0 --.0565 .004064 .0480000000000028 0 -1 0 0 0 -1 .0017 16 154
 952 0 ?156 157 151 152 0 0 1 31 155 1145 0 157 152 158 0 -.0565 .004064 .048000
0000000027 0 -1 0 0 0 -1 .0017 16 157 951 0 ?159 160 154 155 0 0 1 31 158 518 0
 160 155 161 0 +-.0583 .00635 .0583 0 1 0 0 0 1 .0034 16 160 489 0 ?162 163 157
 158 0 0 1 31 161 517 0 163 158 164 0 +-.0583 .00465 .0583 0 1 0 0 0 1 .0017 16
 163 491 0 ?165 166 160 161 0 0 1 31 164 466 0 166 161 167 0 +.0583 .00635 -.012
5 0 1 0 0 0 1 .0034 16 166 437 0 ?168 169 163 164 0 0 1 31 167 465 0 169 164 170
 0 +.0583 .00465 -.0125 0 1 0 0 0 1 .0017 16 169 439 0 ?171 172 166 167 0 0 1 31
 170 414 0 172 167 173 0 +-.03331 .00635 -.0583 0 1 0 0 0 1 .0034 16 172 385 0 ?
174 175 169 170 0 0 1 31 173 413 0 175 170 176 0 +-.03331 .00465 -.0583 0 1 0 0
 0 1 .0017 16 175 387 0 ?177 178 172 173 0 0 1 31 176 362 0 178 173 179 0 +-.058
3 .00635 -.0583 0 1 0 0 0 1 .0034 16 178 333 0 ?180 181 175 176 0 0 1 31 179 361
 0 181 176 182 0 +-.0583 .00465 -.0583 0 1 0 0 0 1 .0017 16 181 335 0 ?183 184 1
78 179 0 0 1 31 182 286 0 184 179 185 0 +-.0565 .00635 -.0479999999999973 0 1 0
 0 0 1 .0034 16 184 257 0 ?186 187 181 182 0 0 1 31 185 285 0 187 182 188 0 +-.0
565 .00465 -.0479999999999973 0 1 0 0 0 1 .0017 16 187 259 0 ?189 190 184 185 0
 0 1 31 188 236 0 190 185 191 0 +-.0565 .00635 .0480000000000028 0 1 0 0 0 1 .00
34 16 190 207 0 ?192 193 187 188 0 0 1 31 191 235 0 193 188 194 0 +-.0565 .00465
 .0480000000000028 0 1 0 0 0 1 .0017 16 193 209 0 ?195 196 190 191 0 0 1 31 194
 186 0 196 191 197 0 +.0565 .00635 .0480000000000027 0 1 0 0 0 1 .0034 16 196 15
7 0 ?198 199 193 194 0 0 1 31 197 185 0 199 194 200 0 +.0565 .00465 .04800000000
00027 0 1 0 0 0 1 .0017 16 199 159 0 ?201 202 196 197 0 0 1 30 200 5 0 202 197 2
03 0 +.0635 .00635 .0635 0 0 -1 16 202 620 0 ?204 205 199 200 0 0 1 30 203 8 0 2
05 200 206 0 +-.0635 .00635 -.0635 -1 0 0 16 205 604 0 ?207 208 202 203 0 0 1 30
 206 11 0 208 203 209 0 +-.0635 .00635 .0635 0 0 1 16 208 550 0 ?210 211 205 206
 0 0 1 30 209 14 0 211 206 212 0 +-.0635 .00635 .0635 1 0 0 16 211 626 0 ?213 21
4 208 209 0 0 1 30 212 557 0 214 209 215 0 --.0635 .00635 .0625 0 -1 0 16 214 79
3 0 ?61 216 211 212 0 0 1 30 215 562 0 216 212 217 0 +-.0635 .00635 -.0625 0 -1
 0 16 216 560 0 ?218 219 214 215 0 0 1 30 217 611 0 219 215 220 0 +.0625 .00635
 -.0635 0 -1 0 16 219 609 0 ?221 222 216 217 0 0 1 30 220 616 0 222 217 223 0 --
.0625 .00635 -.0635 0 -1 0 16 222 826 0 ?55 224 219 220 0 0 1 31 223 633 0 224 2
20 225 0 --.0625 .00635 .0625 0 -1 0 0 0 -1 .001 16 224 631 0 ?46 226 222 223 0
 0 1 31 225 638 0 226 223 227 0 -.0625 .00635 .0625 0 -1 0 0 0 -1 .001 16 226 63
6 0 ?52 228 224 225 0 0 1 31 227 643 0 228 225 229 0 -.0625 .00635 -.0625 0 -1 0
 0 0 -1 .001 16 228 641 0 ?58 230 226 227 0 0 1 31 229 648 0 230 227 231 0 --.06
25 .00635 -.0625 0 -1 0 0 0 -1 .001 16 230 646 0 ?64 232 228 229 0 0 1 30 231 65
3 0 232 229 233 0 +.0635 .00635 .0625 0 -1 0 16 232 651 0 ?234 235 230 231 0 0 1
 30 233 658 0 235 231 21 0 -.0635 .00635 -.0625 0 -1 0 16 235 815 0 ?49 25 232 2
33 0 0 1 30 21 663 0 25 233 8 0 +-.0625 .00635 .0635 0 -1 0 16 25 661 0 ?236 11
 235 21 0 0 1 17 236 0 237 39 238 27 239 25 0 0 +15 237 892 0 39 240 0 17 39 0 2
37 24 236 74 34 40 0 241 +17 238 0 237 236 24 42 213 211 0 239 -17 239 0 242 243
 41 42 236 25 0 0 -15 242 750 0 244 19 0 17 243 0 242 244 239 59 46 224 0 0 -17
 41 0 242 239 244 27 37 245 0 236 +17 244 0 242 41 243 75 61 214 0 0 -17 37 0 36
 92 34 75 41 245 0 246 -16 245 943 0 ?41 247 40 129 0 0 1 16 247 980 0 ?248 249
 245 250 0 0 1 16 40 944 0 ?39 245 251 252 0 0 1 31 129 1177 0 245 252 128 0 --.
0625 .004064 .0625 0 -1 0 0 0 -1 .001 30 252 1178 0 40 253 129 0 +.0625 .004064
 .0635 1 0 0 31 253 1179 0 251 254 252 0 -.0625 .004064 .0625 0 -1 0 0 0 -1 .001
 16 251 945 0 ?255 40 256 253 0 0 1 30 254 1180 0 256 257 253 0 +.0635 .004064 -
.0625 0 0 -1 16 256 946 0 ?258 251 259 254 0 0 1 31 257 1181 0 259 260 254 0 -.0
625 .004064 -.0625 0 -1 0 0 0 -1 .001 16 259 947 0 ?261 256 262 257 0 0 1 30 260
 1182 0 262 263 257 0 +-.0625 .004064 -.0635 -1 0 0 16 262 948 0 ?264 259 137 26
0 0 0 1 31 263 1183 0 137 265 260 0 --.0625 .004064 -.0625 0 -1 0 0 0 -1 .001 16
 137 949 0 ?266 262 108 263 0 0 1 30 265 1184 0 142 250 263 0 +-.0635 .004064 .0
625 0 0 1 16 142 950 0 ?246 138 267 265 0 0 1 30 250 1185 0 247 268 265 0 +.0508
 .004064 -.0508 0 0 -1 30 268 1186 0 249 269 250 0 +-.0508 .004064 -.0508 -1 0 0
 16 249 975 0 ?270 267 247 268 0 0 1 30 269 1187 0 267 0 268 0 +-.0508 .004064 -
.0508 0 0 1 16 267 970 0 ?109 142 249 269 0 0 1 17 109 0 271 107 270 65 70 267 0
 103 +15 271 1042 0 107 272 273 17 107 0 271 248 109 93 67 108 0 0 +17 270 0 271
 109 248 68 73 249 0 0 +17 70 0 110 101 103 68 109 267 0 117 -17 117 0 274 73 11
8 68 101 111 0 270 -15 274 1114 0 98 275 0 17 73 0 274 98 117 71 270 249 0 276 -
17 118 0 274 117 98 99 120 121 0 114 -17 98 0 274 118 73 96 276 132 0 125 +17 12
0 0 119 123 114 96 118 121 0 0 +17 276 0 277 95 125 71 98 132 0 248 -17 125 0 27
7 276 33 96 123 126 0 120 -15 277 1118 0 33 278 0 17 33 0 277 125 95 12 29 112 0
 123 +17 95 0 277 33 276 93 248 247 0 29 -17 29 0 28 67 26 93 33 112 0 107 -17 2
48 0 271 270 107 71 95 247 0 0 +14 255 278 1115 279 ?124 275 277 6 280 +0 0 124
 275 23 81 1 279 1803 281 278 282 0 0 283 284 14 124 889 283 ?0 278 119 6 285 +0
 0 0 278 23 14 275 1111 286 ?278 116 274 6 287 +0 0 278 116 23 50 280 1133 0 278
 288 289 0 +.0508 .185955122421383 -.0508 1 0 0 0 0 -1 13 23 29 0 0 0 0 0 0 10 1
7 14 17 909 290 ?291 0 292 6 293 -0 0 291 0 23 81 1 290 1806 281 17 294 0 286 29
5 296 14 291 904 295 ?297 17 298 6 299 -0 0 297 17 23 15 292 907 0 258 17 0 50 2
93 93 0 17 299 300 0 +.0635 .00635 .0635 -1 0 0 0 0 1 50 299 92 0 291 301 293 0
 +-.0635 .00635 -.0635 0 0 1 1 0 0 51 300 698 0 302 293 303 0 +-.0625 .00635 -.0
625 0 -1 0 .001 0 0 -1 14 302 834 304 ?305 306 307 6 300 +0 0 305 306 23 51 303
 719 0 305 300 20 0 +.0625 .00635 -.0625 0 -1 0 .001 0 0 -1 14 305 823 308 ?309
 302 310 6 303 +0 0 309 302 23 51 20 740 0 309 303 7 0 +.0625 .00635 .0625 0 -1
 0 .001 0 0 -1 14 309 812 311 ?19 305 312 6 20 +0 0 19 305 23 81 1 311 1810 281
 309 313 0 308 314 315 14 19 801 314 ?316 309 242 6 7 +0 0 316 309 23 15 312 729
 0 241 309 0 17 241 0 312 255 317 74 24 11 0 0 -17 255 0 312 318 241 87 38 251 0
 234 +17 317 0 312 241 318 35 52 226 0 0 -17 24 0 237 238 39 35 241 11 0 213 +17
 213 0 319 52 46 35 238 211 0 317 +15 319 3 0 207 316 0 17 52 0 319 204 213 50 3
17 226 0 320 +17 46 0 319 213 210 42 243 224 0 238 +17 210 0 319 46 64 59 321 20
8 0 243 +17 64 0 319 210 207 62 322 230 0 321 +17 321 0 323 218 61 62 210 208 0
 324 -15 323 897 0 246 297 0 17 218 0 323 246 321 78 324 216 0 0 +17 61 0 323 32
1 246 59 244 214 0 210 +17 324 0 307 322 266 62 218 216 0 0 -15 307 687 0 325 30
2 0 17 322 0 307 325 324 53 64 230 0 0 -17 266 0 307 324 325 78 80 137 0 218 +17
 325 0 307 266 322 77 55 222 0 0 -17 80 0 36 83 92 77 266 137 0 264 -15 36 1041
 0 37 272 271 17 83 0 36 86 80 81 264 262 0 261 -17 92 0 36 80 37 78 246 142 0 2
66 -17 264 0 298 55 221 77 83 262 0 325 +15 298 902 0 264 291 0 17 55 0 298 326
 264 53 325 222 0 207 +17 221 0 298 264 326 81 327 219 0 0 +17 326 0 298 221 55
 56 207 205 0 327 -17 327 0 310 328 261 56 221 219 0 0 -15 310 708 0 329 305 0 1
7 328 0 310 329 327 47 58 228 0 0 -17 261 0 310 327 329 81 86 259 0 221 +17 329
 0 310 261 328 84 49 235 0 0 -17 86 0 36 89 83 84 261 259 0 258 -17 89 0 36 38 8
6 87 258 256 0 255 -17 258 0 292 49 234 84 89 256 0 329 +17 49 0 292 320 258 47
 329 235 0 204 +17 234 0 292 258 320 87 318 232 0 0 +17 320 0 292 234 49 50 204
 202 0 318 -17 318 0 312 317 255 50 234 232 0 0 -17 204 0 319 58 52 47 320 202 0
 328 +17 58 0 319 207 204 56 328 228 0 326 +17 207 0 319 64 58 53 326 205 0 322
 +17 38 0 36 34 89 74 255 251 0 39 -17 246 0 323 61 218 75 92 142 0 244 +14 272
 1039 330 ?106 331 36 6 332 +0 0 106 331 23 81 1 330 1812 281 272 333 0 314 334
 335 14 106 1103 334 ?116 272 28 6 288 +0 0 116 272 23 14 331 505 336 ?272 337 3
38 6 289 -0 0 272 337 23 50 332 1137 0 272 0 287 0 +0 .004064 0 0 -1 0 0 0 -1 50
 287 1136 0 275 332 339 0 +-.0508 .185955122421383 -.0508 0 0 -1 -1 0 0 50 339 1
135 0 116 287 288 0 +-.0508 .185955122421383 -.0508 -1 0 0 0 0 1 14 116 1107 340
 ?275 106 110 6 339 +0 0 275 106 23 50 288 1134 0 106 339 280 0 +-.0508 .1859551
22421383 .0508 0 0 1 1 0 0 81 1 340 1815 281 116 341 0 336 342 343 80 255 1 281
 344 345 9000 1 1 1 1 1 1 1 1 0 FFFFTFTFFFFFFF1 81 1 341 1739 346 116 0 340 347
 348 349 81 1 336 1814 281 331 350 0 334 340 351 81 1 342 1816 281 240 352 0 340
 353 354 82 255 1 343 -1001848320 14 240 894 342 ?355 297 237 6 356 -0 0 355 297
 23 81 1 352 1717 346 240 0 342 357 358 359 81 1 353 1817 281 297 357 0 342 360
 361 82 1 354 -941817344 14 297 899 353 ?240 291 323 6 301 -0 0 240 291 23 81 1
 357 1716 346 297 0 353 362 352 363 81 1 360 1818 281 306 364 0 353 365 366 82 1
 361 -941358592 14 306 839 360 ?302 367 368 6 369 -0 0 302 367 23 81 1 364 1724
 346 306 0 360 370 371 372 81 1 365 1819 281 367 370 0 360 373 374 82 1 366 -946
863616 14 367 844 365 ?306 375 376 6 377 -0 0 306 375 23 81 1 370 1723 346 367 0
 365 378 364 379 81 1 373 1820 281 375 378 0 365 380 381 82 1 374 -946404864 14
 375 849 373 ?367 382 383 6 384 -0 0 367 382 23 81 1 378 1722 346 375 0 373 385
 370 386 81 1 380 1821 281 382 385 0 373 387 388 82 1 381 -945946112 14 382 854
 380 ?375 389 390 6 391 -0 0 375 389 23 81 1 385 1721 346 382 0 380 392 378 393
 81 1 387 1822 281 389 392 0 380 394 395 82 1 388 -945487360 14 389 859 387 ?382
 396 397 6 398 -0 0 382 396 23 81 1 392 1720 346 389 0 387 399 385 400 81 1 394
 1823 281 396 399 0 387 401 402 82 1 395 -945028608 14 396 864 394 ?389 355 403
 6 404 -0 0 389 355 23 81 1 399 1719 346 396 0 394 358 392 405 81 1 401 1824 281
 355 358 0 394 406 407 82 1 402 -944569856 14 355 869 401 ?396 240 408 6 409 -0
 0 396 240 23 81 1 358 1718 346 355 0 401 352 399 410 81 1 406 1825 281 316 411
 0 401 412 413 82 1 407 -944111104 14 316 1 406 ?414 19 415 6 416 -0 0 414 19 23
 81 1 411 1729 346 316 0 406 417 418 419 81 1 412 1826 281 414 418 0 406 420 421
 82 1 413 -403045893 14 414 173 412 ?422 316 423 6 424 -0 0 422 316 23 81 1 418
 1730 346 414 0 412 411 425 426 81 1 420 1827 281 422 425 0 412 427 428 82 1 421
 137232876 14 422 223 420 ?429 414 430 6 431 -0 0 429 414 23 81 1 425 1731 346 4
22 0 420 418 432 433 81 1 427 1828 281 429 432 0 420 434 435 82 1 428 156172780
 14 429 273 427 ?436 422 437 6 438 -0 0 436 422 23 81 1 432 1732 346 429 0 427 4
25 439 440 81 1 434 1829 281 436 439 0 427 441 442 82 1 435 175047148 14 436 349
 434 ?443 429 444 6 445 -0 0 443 429 23 81 1 439 1733 346 436 0 434 432 446 447
 81 1 441 1830 281 443 446 0 434 448 449 82 1 442 -1825570310 14 443 401 441 ?33
7 436 450 6 451 -0 0 337 436 23 81 1 446 1734 346 443 0 441 439 452 453 81 1 448
 1831 281 337 452 0 441 0 454 82 1 449 -1806630406 14 337 453 448 ?331 443 455 6
 456 -0 0 331 443 23 81 1 452 1735 346 337 0 448 446 350 457 82 1 454 -178775603
8 80 1 346 0 458 8001 0 0 0 0 3 5 0 0 0 FFFFTFTFFFFFFF2 81 1 350 1736 346 331 0
 336 452 333 459 83 255 3 457 .666666666666667 .698039215686275 .768627450980392
 81 1 333 1737 346 272 0 330 350 347 460 83 3 459 .666666666666667 .698039215686
275 .768627450980392 81 1 347 1738 346 106 0 334 333 341 461 83 3 460 .666666666
666667 .698039215686275 .768627450980392 81 1 334 1813 281 106 347 0 330 336 462
 83 3 461 .666666666666667 .698039215686275 .768627450980392 82 1 462 -100165171
2 79 255 15 458 SDL/TYSA_COLOUR15 455 456 0 463 337 464 52 255 456 463 0 337 369
 377 0 +.0583 .00635 -.0125 0 1 0 .0034 .707106781186547 .707106781186548 0 0 1
 51 369 514 0 306 289 456 0 +-.0583 .00635 .0583 0 1 0 .0017 0 0 1 51 377 462 0
 367 456 451 0 +.0583 .00635 -.0125 0 1 0 .0017 0 0 1 52 451 411 0 443 377 384 0
 +-.03331 .00635 -.0583 0 1 0 .0034 .707106781186547 .707106781186548 0 0 1 51 3
84 410 0 375 451 445 0 +-.03331 .00635 -.0583 0 1 0 .0017 0 0 1 52 445 359 0 436
 384 391 0 +-.0583 .00635 -.0583 0 1 0 .0034 .707106781186547 .707106781186548 0
 0 1 51 391 358 0 382 445 438 0 +-.0583 .00635 -.0583 0 1 0 .0017 0 0 1 52 438 2
83 0 429 391 398 0 +-.0565 .00635 -.0479999999999973 0 1 0 .0034 .70710678118654
8 .707106781186548 0 0 1 51 398 282 0 389 438 431 0 +-.0565 .00635 -.04799999999
99973 0 1 0 .0017 0 0 1 52 431 233 0 422 398 404 0 +-.0565 .00635 .0480000000000
028 0 1 0 .0034 .707106781186548 .707106781186548 0 0 1 51 404 232 0 396 431 424
 0 +-.0565 .00635 .0480000000000028 0 1 0 .0017 0 0 1 52 424 183 0 414 404 409 0
 +.0565 .00635 .0480000000000027 0 1 0 .0034 .707106781186548 .707106781186548 0
 0 1 51 409 182 0 355 424 416 0 +.0565 .00635 .0480000000000027 0 1 0 .0017 0 0
 1 50 416 2 0 316 409 285 0 +0 .00635 0 0 -1 0 0 0 -1 50 285 65 0 124 416 356 0
 +0 0 0 0 -1 0 0 0 -1 50 356 90 0 240 285 301 0 +-.0635 .00635 .0635 0 0 -1 -1 0
 0 50 301 91 0 297 356 299 0 +-.0635 .00635 .0635 1 0 0 0 0 -1 52 289 515 0 331
 280 369 0 +-.0583 .00635 .0583 0 1 0 .0034 .707106781186547 .707106781186548 0
 0 1 17 463 0 455 463 463 0 171 169 0 0 -15 464 457 0 168 337 0 17 168 0 464 168
 168 0 465 166 0 0 +17 465 0 466 465 465 0 168 166 0 0 -15 466 427 0 465 316 467
 15 467 365 0 468 316 469 17 468 0 467 468 468 0 174 172 0 0 -15 469 323 0 470 3
16 471 17 470 0 469 470 470 0 180 178 0 0 -15 471 248 0 472 316 473 17 472 0 471
 472 472 0 186 184 0 0 -15 473 198 0 474 316 475 17 474 0 473 474 474 0 192 190
 0 0 -15 475 148 0 476 316 319 17 476 0 475 476 476 0 198 196 0 0 -17 198 0 477
 198 198 0 476 196 0 0 +15 477 177 0 198 414 0 17 192 0 478 192 192 0 474 190 0
 0 +15 478 227 0 192 422 0 17 186 0 479 186 186 0 472 184 0 0 +15 479 277 0 186
 429 0 17 180 0 480 180 180 0 470 178 0 0 +15 480 353 0 180 436 0 17 174 0 481 1
74 174 0 468 172 0 0 +15 481 405 0 174 443 0 17 171 0 376 171 171 0 463 169 0 0
 +15 376 452 0 171 367 482 15 482 843 0 483 367 0 17 483 0 482 483 483 0 144 141
 0 0 -17 144 0 484 144 144 0 483 141 0 0 +15 484 1044 0 144 272 485 15 485 1045
 0 147 272 486 17 147 0 485 147 147 0 487 145 0 0 +15 486 1046 0 150 272 488 17
 150 0 486 150 150 0 489 148 0 0 +15 488 1047 0 153 272 490 17 153 0 488 153 153
 0 491 151 0 0 +15 490 1048 0 156 272 492 17 156 0 490 156 156 0 493 154 0 0 +15
 492 1049 0 159 272 0 17 159 0 492 159 159 0 494 157 0 0 +17 494 0 495 494 494 0
 159 157 0 0 -15 495 868 0 494 355 0 17 493 0 496 493 493 0 156 154 0 0 -15 496
 863 0 493 396 0 17 491 0 497 491 491 0 153 151 0 0 -15 497 858 0 491 389 0 17 4
89 0 498 489 489 0 150 148 0 0 -15 498 853 0 489 382 0 17 487 0 499 487 487 0 14
7 145 0 0 -15 499 848 0 487 375 0 83 3 453 .666666666666667 .698039215686275 .76
8627450980392 15 450 404 0 500 443 481 17 500 0 450 500 500 0 177 175 0 0 -17 17
7 0 383 177 177 0 500 175 0 0 +15 383 400 0 177 375 499 83 3 447 .66666666666666
7 .698039215686275 .768627450980392 15 444 352 0 501 436 480 17 501 0 444 501 50
1 0 183 181 0 0 -17 183 0 390 183 183 0 501 181 0 0 +15 390 348 0 183 382 498 83
 3 440 .666666666666667 .698039215686275 .768627450980392 15 437 276 0 502 429 4
79 17 502 0 437 502 502 0 189 187 0 0 -17 189 0 397 189 189 0 502 187 0 0 +15 39
7 272 0 189 389 497 83 3 433 .666666666666667 .698039215686275 .768627450980392
 15 430 226 0 503 422 478 17 503 0 430 503 503 0 195 193 0 0 -17 195 0 403 195 1
95 0 503 193 0 0 +15 403 222 0 195 396 496 83 3 426 .666666666666667 .6980392156
86275 .768627450980392 15 423 176 0 504 414 477 17 504 0 423 504 504 0 201 199 0
 0 -17 201 0 408 201 201 0 504 199 0 0 +15 408 172 0 201 355 495 81 1 417 1728 3
46 19 0 314 313 411 505 83 3 419 .666666666666667 .698039215686275 .768627450980
392 81 1 314 1811 281 19 417 0 311 330 506 81 1 313 1727 346 309 0 311 507 417 5
08 83 3 505 .666666666666667 .698039215686275 .768627450980392 81 1 507 1726 346
 305 0 308 371 313 509 83 3 508 .666666666666667 .698039215686275 .7686274509803
92 81 1 308 1809 281 305 507 0 304 311 510 81 1 371 1725 346 302 0 304 364 507 5
11 83 3 509 .666666666666667 .698039215686275 .768627450980392 81 1 304 1808 281
 302 371 0 295 308 512 83 3 511 .666666666666667 .698039215686275 .7686274509803
92 81 1 295 1807 281 291 362 0 290 304 513 82 1 512 -947322368 81 1 362 1715 346
 291 0 295 294 357 514 82 1 513 -940899840 81 1 294 1714 346 17 0 290 0 362 515
 83 3 514 .666666666666667 .698039215686275 .768627450980392 83 3 515 .666666666
666667 .698039215686275 .768627450980392 82 1 510 -948436480 82 1 506 -958004736
 15 415 479 0 516 316 466 17 516 0 415 516 516 0 162 160 0 0 -17 162 0 517 162 1
62 0 516 160 0 0 +15 517 509 0 162 331 0 83 3 410 .666666666666667 .698039215686
275 .768627450980392 83 3 405 .666666666666667 .698039215686275 .768627450980392
 83 3 400 .666666666666667 .698039215686275 .768627450980392 83 3 393 .666666666
666667 .698039215686275 .768627450980392 83 3 386 .666666666666667 .698039215686
275 .768627450980392 83 3 379 .666666666666667 .698039215686275 .768627450980392
 83 3 372 .666666666666667 .698039215686275 .768627450980392 15 368 504 0 165 30
6 518 17 165 0 368 165 165 0 519 163 0 0 +15 518 838 0 520 306 0 17 520 0 518 52
0 520 0 140 138 0 0 -17 140 0 273 140 140 0 520 138 0 0 +15 273 1043 0 140 272 4
84 17 519 0 338 519 519 0 165 163 0 0 -15 338 508 0 519 331 517 83 3 363 .666666
666666667 .698039215686275 .768627450980392 83 3 359 .666666666666667 .698039215
686275 .768627450980392 82 1 351 -1768881670 81 1 348 1740 346 275 0 286 341 282
 521 83 3 349 .666666666666667 .698039215686275 .768627450980392 81 1 286 1805 2
81 275 348 0 283 290 522 81 1 282 1741 346 278 0 279 348 523 524 83 3 521 .66666
6666666667 .698039215686275 .768627450980392 81 1 523 1742 346 124 0 283 282 0 5
25 83 3 524 .666666666666667 .698039215686275 .768627450980392 81 1 283 1804 281
 124 523 0 279 286 526 83 3 525 .666666666666667 .698039215686275 .7686274509803
92 82 1 526 -942276096 82 1 522 -1002044928 79 14 345 SWEntUnchanged82 1 335 -95
4334720 82 1 315 -949550592 82 1 296 -940441088 82 1 284 -1002241536 19 18 95 0
 1 0 10 6 S0 50 16 789 0 1 527 4 0 +0 .004064 0 0 -1 0 0 0 -1 50 527 788 0 1 528
 16 0 +0 .004064 0 0 -1 0 0 0 -1 50 528 787 0 1 0 527 0 +0 .004064 0 0 -1 0 0 0
 -1 74 4 CI16 index_map_offset0 0 1 dCCZ20 15 3 0 0 448 2 523 0 0 0 0 0 0 0 0 0
 0 0 0 0 0 0 0 0 80 2 13 529 530 8004 0 0 0 0 3 5 0 0 0 FFTFFFFFFFFFFF2 3 83 1 1
4 1e3 79 16 530 SDL/TYSA_DENSITY1 0 
