**ABCDEFGHIJKLMNOPQRSTUVWXYZabcdefghijklmnopqrstuvwxyz**************************
**PARASOLID !"#$%&'()*+,-./:;<=>?@[\]^_`{|}~0123456789**************************
**PART1;
MC=AMD64;
MC_MODEL=Intel64 Family 6 Model 60 Stepping 3, GenuineIntel;
MC_ID=unknown;
OS=Windows_NT;
OS_RELEASE=unknown;
FRU=Parasolid Version 28.0, build 191,  8-24-2015;
APPL=SOLIDWORKS 2016-2015334;
SITE=;
USER=unknown;
FORMAT=text;
GUISE=transmit;
KEY=Z Axis Frame REV2;
FILE=Z Axis Frame REV2.x_t;
DATE=Wed Aug 24 21:36:37 2016;
**PART2;
SCH=SCH_2800191_28002;
USFLD_SIZE=0;
**PART3;
**END_OF_HEADER*****************************************************************
T51 : TRANSMIT FILE created by modeller version 280019123 SCH_2800191_28002_1300
6200 0 12 30 CCCCCCCCCCCCCDI5 owner1040 0 CCCCCCCCCA13 boundary_mesh1006 0 A16 i
ndex_map_offset0 0 1 dA9 index_map82 0 A17 node_id_index_map82 0 A20 schema_embe
dding_map82 0 A5 child12 0 A14 lowest_node_id0 0 1 dZ1 1707 2 3 0 0 0 0 1e3 1e-8
 0 4 0 1 0 1 1 5 6 7 8 9 10 11 0 0 0 0 0 0 0 81 255 2 2 1402 12 1 0 0 0 0 13 0 7
0 11 CI9 list_type0 0 1 uI10 notransmit0 0 1 lCCCDCCDI12 finger_index0 0 1 dI12
 finger_block1012 0 CZ3 0 4 T1 0 0 3 20 1 14 14 13 255 5 234 0 1 0 15 0 0 16 0 5
1 255 6 1328 0 17 18 0 0 +-.0565 .00635 .0545000000000013 0 -1 0 .0075 0 0 -1 31
 255 7 1237 0 10 19 0 0 -.0469999999999991 .00635 -.0551066017177982 0 1 0 0 0 1
 .0075 29 255 8 1197 0 11 20 0 .0565 .00635 .0620000000000013 19 8 CCCCCCCA5 own
er12 0 Z9 70 0 1 16 0 21 V0 16 255 10 1232 0 ?22 0 23 7 0 0 1 18 255 11 1195 0 2
4 0 25 8 ?1 17 255 24 0 26 27 28 11 29 30 0 31 +18 25 1192 0 32 11 33 20 ?1 17 3
2 0 34 31 35 25 36 37 0 27 +18 33 1189 0 38 25 39 40 ?1 29 20 1194 0 25 40 8 -.0
565 .00635 .0620000000000013 29 40 1191 0 33 41 20 -.064 .00635 .054500000000001
3 29 41 1178 0 39 42 40 .064 .00635 -.02439339828220035 18 39 1176 0 43 33 44 41
 ?1 29 42 1175 0 44 45 41 .064 .00635 .0545000000000013 18 44 1173 0 46 39 47 42
 ?1 29 45 1157 0 47 48 42 -.064 0 .0545000000000013 18 47 1155 0 49 44 50 45 ?1
 29 48 1154 0 50 51 45 .0565 0 .0620000000000013 18 50 1152 0 52 47 53 48 ?1 29
 51 1151 0 53 54 48 -.0565 0 .0620000000000013 18 53 1149 0 55 50 56 51 ?1 29 54
 1148 0 56 57 51 .064 0 -.02439339828220035 18 56 1146 0 58 53 59 54 ?1 29 57 11
45 0 59 60 54 .064 0 .0545000000000013 18 59 1143 0 61 56 62 57 ?1 29 60 1132 0
 62 63 57 .0416966991410999 .00635 -.0498033008588991 18 62 1130 0 64 59 65 60 ?
1 29 63 1129 0 65 66 60 .0618033008588992 .00635 -.0296966991410994 18 65 1127 0
 67 62 68 63 ?1 29 66 1126 0 68 69 63 .0416966991410999 0 -.0498033008588991 18
 68 1124 0 70 65 71 66 ?1 29 69 1123 0 71 72 66 .0618033008588992 0 -.0296966991
410994 18 71 1121 0 73 68 74 69 ?1 29 72 1115 0 74 75 69 .03949999999999905 .006
35 -.0551066017177981 18 74 1113 0 22 71 76 72 ?1 29 75 1112 0 76 77 72 .0394999
9999999905 0 -.0551066017177981 18 76 1110 0 78 74 79 75 ?1 29 77 168 0 80 81 75
 -.059612494995996 0 -.1025 18 80 145 0 82 83 84 77 ?1 29 81 170 0 84 85 77 .005
63250300239705 0 -.1025 18 84 147 0 86 80 87 81 ?1 29 85 171 0 87 88 81 .0145000
000000005 0 -.1056124949959974 18 87 148 0 89 84 90 85 ?1 29 88 173 0 90 91 85 .
03949999999999885 0 -.1056124949959972 18 90 150 0 92 87 93 88 ?1 29 91 178 0 93
 94 88 -.064 0 -.09 18 93 155 0 95 90 0 91 ?1 29 94 69 0 79 96 91 -.059612494995
996 .00635 -.1025 18 79 67 0 97 76 98 94 ?1 29 96 63 0 98 99 94 .005632503002397
05 .00635 -.1025 18 98 61 0 100 79 101 96 ?1 29 99 60 0 101 102 96 .014500000000
0005 .00635 -.1056124949959974 18 101 58 0 103 98 104 99 ?1 29 102 54 0 104 105
 99 .03949999999999885 .00635 -.1056124949959972 18 104 52 0 106 101 83 102 ?1 2
9 105 39 0 83 0 102 -.064 .00635 -.09 18 83 37 0 107 104 80 105 ?1 17 107 0 108
 109 38 83 35 110 0 111 -15 255 108 208 0 112 113 0 17 109 0 108 112 107 93 114
 115 0 116 +17 38 0 108 107 112 33 117 118 0 35 +17 35 0 34 32 111 33 107 110 0
 36 +16 110 7 0 ?35 119 120 121 0 0 1 17 111 0 34 35 97 83 122 120 0 114 +15 34
 3 0 123 15 124 17 97 0 34 111 100 79 125 126 0 127 +17 122 0 128 129 114 79 111
 120 0 0 -16 120 4 0 ?111 110 130 131 0 0 1 17 114 0 128 122 116 83 109 115 0 0
 -15 128 210 0 116 132 0 17 116 0 128 114 129 93 133 134 0 0 +16 115 189 0 ?109
 135 136 137 0 0 1 16 135 1116 0 ?138 139 115 140 0 0 1 16 136 184 0 ?141 115 14
2 143 0 0 1 30 255 137 222 0 115 143 140 0 +-.064 .00635 -.09 0 -1 0 30 143 217
 0 136 144 137 0 +.03949999999999885 .00635 -.1056124949959972 0 -1 0 30 140 111
8 0 135 137 145 0 +.03949999999999905 0 -.0551066017177981 0 -1 0 30 145 1135 0
 139 140 146 0 +.0618033008588992 .00635 -.0296966991410994 0 -1 0 16 139 1133 0
 ?147 148 135 145 0 0 1 30 146 1140 0 148 145 149 0 -.0416966991410999 .00635 -.
0498033008588991 0 -1 0 16 148 1138 0 ?64 150 139 146 0 0 1 31 149 1160 0 150 14
6 151 0 --.0565 0 .0545000000000013 0 1 0 0 0 1 .0075 16 150 1158 0 ?49 152 148
 149 0 0 1 31 151 1165 0 152 149 153 0 -.0565 0 .0545000000000013 0 1 0 0 0 1 .0
075 16 152 1163 0 ?52 154 150 151 0 0 1 31 153 1170 0 154 151 155 0 -.0565 0 -.0
2439339828220035 0 1 0 0 0 1 .0075 16 154 1168 0 ?58 156 152 153 0 0 1 30 155 11
81 0 156 153 157 0 +.064 .00635 .0545000000000013 0 -1 0 16 156 1179 0 ?158 159
 154 155 0 0 1 30 157 1186 0 159 155 160 0 -.064 .00635 -.02439339828220035 0 -1
 0 16 159 1184 0 ?43 37 156 157 0 0 1 31 160 1200 0 37 157 161 0 +-.0565 .00635
 .0545000000000013 0 1 0 0 0 1 .0075 16 37 1198 0 ?32 162 159 160 0 0 1 31 161 1
205 0 162 160 163 0 +.0565 .00635 .0545000000000013 0 1 0 0 0 1 .0075 16 162 120
3 0 ?46 164 37 161 0 0 1 31 163 1210 0 164 161 165 0 +.0565 .00635 -.02439339828
220035 0 1 0 0 0 1 .0075 16 164 1208 0 ?67 166 162 163 0 0 1 30 165 1215 0 166 1
63 167 0 +-.0565 .00635 .0620000000000013 0 -1 0 16 166 1213 0 ?168 30 164 165 0
 0 1 30 167 1220 0 30 165 169 0 -.0565 .00635 .0620000000000013 0 -1 0 16 30 121
8 0 ?24 118 166 167 0 0 1 30 169 1225 0 118 167 19 0 --.064 .00635 .054500000000
0013 0 -1 0 16 118 1223 0 ?38 23 30 169 0 0 1 31 19 1236 0 23 169 7 0 +.04699999
99999991 0 -.0551066017177982 0 1 0 0 0 1 .0075 16 23 1228 0 ?70 10 118 19 0 0 1
 17 70 0 170 171 172 68 78 23 0 173 +15 170 100 0 171 174 175 17 171 0 170 58 70
 71 173 176 0 0 -17 172 0 170 70 177 76 92 178 0 0 -17 78 0 179 180 181 76 70 23
 0 138 -17 173 0 182 64 147 68 171 176 0 181 +15 182 202 0 173 183 0 17 64 0 182
 184 173 62 181 148 0 185 +17 147 0 182 173 184 71 186 139 0 171 +16 176 1122 0
 ?173 178 187 188 0 0 1 17 181 0 179 78 189 68 64 148 0 0 -15 179 1254 0 189 190
 0 17 189 0 179 181 180 62 22 10 0 0 -17 180 0 179 189 78 74 138 135 0 0 -17 22
 0 34 106 185 74 189 10 0 191 +17 106 0 34 103 22 104 191 192 0 193 +17 185 0 34
 22 67 62 184 194 0 189 +17 191 0 195 138 193 74 106 192 0 180 -15 195 200 0 191
 196 0 17 138 0 195 92 191 76 180 135 0 172 +17 193 0 195 191 92 104 141 136 0 1
97 -16 192 1114 0 ?106 198 194 199 0 0 1 16 198 22 0 ?103 200 192 201 0 0 1 16 1
94 1128 0 ?185 192 202 203 0 0 1 30 199 20 0 192 203 201 0 +.03949999999999905 .
00635 -.052 -452993815443368e-29 0 -1 30 203 17 0 194 204 199 0 +.03949999999999
905 .00635 -.052 -.70710678118654 0 -.707106781186555 31 201 23 0 198 199 205 0
 +.027 .00635 -.09 0 1 0 0 0 1 .02 31 205 29 0 200 201 206 0 +.00563250300239705
 .00635 -.1166879951961664 0 -1 0 0 0 -1 .0141879951961668 16 200 28 0 ?100 126
 198 205 0 0 1 30 206 32 0 126 205 207 0 +0 .00635 -.1025 -1 0 0 16 126 31 0 ?97
 208 200 206 0 0 1 31 207 167 0 134 206 209 0 +-.044 0 -.09 0 1 0 0 0 1 .02 16 1
34 141 0 ?116 210 211 207 0 0 1 30 209 166 0 210 207 212 0 +-.064 0 -.09 1826024
71155452e-30 0 1 16 210 137 0 ?112 213 134 209 0 0 1 30 212 165 0 213 209 214 0
 +-.064 0 .0620000000000013 1 0 -542101086242752e-31 16 213 1150 0 ?28 187 210 2
12 0 0 1 30 214 164 0 187 212 188 0 +.064 0 .0620000000000013 0 0 -1 16 187 1144
 0 ?215 176 213 214 0 0 1 30 188 163 0 176 214 216 0 +.03949999999999905 0 -.052
 -.70710678118654 0 -.707106781186555 30 216 162 0 178 188 217 0 +.0394999999999
9905 0 -.052 -452993815443368e-29 0 -1 16 178 1111 0 ?92 218 176 216 0 0 1 31 21
7 160 0 218 216 219 0 +.027 0 -.09 0 1 0 0 0 1 .02 16 218 113 0 ?89 220 178 217
 0 0 1 31 219 159 0 220 217 221 0 +.00563250300239705 0 -.1166879951961664 0 -1
 0 0 0 -1 .0141879951961668 16 220 109 0 ?222 130 218 219 0 0 1 30 221 157 0 130
 219 223 0 +-.059612494995996 0 -.1025 -1 0 0 16 130 101 0 ?82 120 220 221 0 0 1
 30 223 212 0 208 221 224 0 +-.059612494995996 .00635 -.1025 0 -1 0 16 208 179 0
 ?129 225 126 223 0 0 1 30 224 214 0 225 223 144 0 +.00563250300239705 .00635 -.
1025 0 -1 0 16 225 181 0 ?226 142 208 224 0 0 1 30 144 215 0 142 224 143 0 +.014
5000000000005 .00635 -.1056124949959974 0 -1 0 16 142 182 0 ?227 136 225 144 0 0
 1 17 227 0 228 222 229 87 230 142 0 231 +15 228 194 0 222 232 0 17 222 0 228 23
3 227 84 231 220 0 226 +17 229 0 228 227 233 101 100 200 0 0 -17 230 0 234 197 8
9 101 227 142 0 229 -17 231 0 170 177 86 87 222 220 0 0 -17 177 0 170 172 231 90
 89 218 0 141 -17 86 0 170 231 133 84 82 130 0 222 -17 133 0 170 86 95 80 116 13
4 0 0 -17 82 0 235 127 226 80 86 130 0 129 +15 235 190 0 82 236 0 17 127 0 235 1
25 82 79 129 208 0 122 -17 226 0 235 82 125 84 233 225 0 0 +17 129 0 128 116 122
 80 127 208 0 133 +17 125 0 235 226 127 98 97 126 0 0 -17 233 0 228 229 222 98 2
26 225 0 125 -14 255 236 191 237 ?238 232 235 5 239 -0 0 238 232 21 81 1 237 167
5 240 236 241 0 0 242 243 14 238 290 242 ?244 236 245 5 246 +0 0 244 236 21 14 2
32 195 247 ?236 248 228 5 249 -0 0 236 248 21 50 255 239 223 0 236 250 249 0 +-.
059612494995996 .00635 -.1025 0 0 1 1 0 0 13 21 71 0 0 0 0 0 0 9 15 14 15 357 25
1 ?174 0 252 5 253 +0 0 174 0 21 81 1 251 1678 240 15 254 0 247 255 256 14 174 3
51 255 ?132 15 257 5 250 -0 0 132 15 21 15 252 1363 0 258 15 259 50 253 2 0 15 2
46 250 0 +-.044 .00635 -.09 0 1 0 0 0 1 51 246 303 0 238 260 253 0 -.027 .00635
 -.09 0 -1 0 .0099999999999998 0 0 -1 50 250 156 0 174 253 239 0 +-.044 0 -.09 0
 1 0 0 0 1 51 260 341 0 244 261 246 0 --.044 .00635 -.09 0 -1 0 .01 0 0 -1 14 24
4 328 262 ?263 238 264 5 260 +0 0 263 238 21 51 261 379 0 263 265 260 0 --.00599
999999999992 .00635 -.0663500000000008 0 -1 0 .004249999999998745 0 0 -1 14 263
 366 266 ?267 244 268 5 261 +0 0 267 244 21 51 265 487 0 267 269 261 0 +.027 0 -
.1045 0 -1 0 .00165 0 0 -1 14 267 478 270 ?271 263 272 5 265 -0 0 271 263 21 51
 269 531 0 271 273 265 0 +.027 0 -.075500000000001 0 -1 0 .00165 0 0 -1 14 271 5
22 274 ?275 267 276 5 269 -0 0 275 267 21 51 273 575 0 275 277 269 0 +-.02950000
000000135 0 -.09 0 -1 0 .00165 0 0 -1 14 275 566 278 ?279 271 280 5 273 -0 0 279
 271 21 51 277 619 0 279 281 273 0 +-.0585000000000013 0 -.09 0 -1 0 .00165 0 0
 -1 14 279 610 282 ?283 275 284 5 277 -0 0 283 275 21 51 281 681 0 283 285 277 0
 +-.000500738685968702 0 -.0631750000000008 0 -1 0 .00125 0 0 -1 14 283 672 286
 ?287 279 288 5 281 -0 0 287 279 21 51 285 723 0 287 289 281 0 +-.01149926131403
11 0 -.0631750000000008 0 -1 0 .00125 0 0 -1 14 287 714 290 ?291 283 292 5 285 -
0 0 291 283 21 51 289 765 0 291 293 285 0 +-.00599999999999989 0 -.0727000000000
008 0 -1 0 .00125 0 0 -1 14 291 756 294 ?295 287 296 5 289 -0 0 295 287 21 51 29
3 830 0 295 297 289 0 +-.019 -1734723475976805e-33 -.07935 0 1 0 .00425 0 0 1 14
 295 817 298 ?299 291 300 5 293 -0 0 299 291 21 51 297 868 0 299 301 293 0 +.007
0000000000001 -1734723475976805e-33 -.07935 0 1 0 .00425 0 0 1 14 299 855 302 ?3
03 295 304 5 297 -0 0 303 295 21 51 301 906 0 303 305 297 0 +.0070000000000001 -
1734723475976805e-33 -.05335 0 1 0 .00425 0 0 1 14 303 893 306 ?307 299 308 5 30
1 -0 0 307 299 21 51 305 944 0 307 309 301 0 +-.019 -1734723475976805e-33 -.0533
5 0 1 0 .00425 0 0 1 14 307 931 310 ?311 303 312 5 305 -0 0 311 303 21 51 309 10
11 0 311 313 305 0 +.0565 .00635 .054500000000001 0 1 0 .00165 0 0 1 14 311 1002
 314 ?315 307 316 5 309 -0 0 315 307 21 51 313 1052 0 315 317 309 0 +-.0565 .006
35 .054500000000001 0 1 0 .00165 0 0 1 14 315 1043 318 ?319 311 320 5 313 -0 0 3
19 311 21 51 317 1093 0 319 321 313 0 +-.0565 .00635 -.041499999999999 0 1 0 .00
165 0 0 1 14 319 1084 322 ?190 315 323 5 317 -0 0 190 315 21 51 321 1387 0 324 0
 317 0 +.055 -1734723475976805e-33 -.023772077938641 0 1 0 .005 0 0 1 14 324 137
4 325 ?0 17 326 5 321 -0 0 0 17 21 81 1 325 1696 240 324 327 0 322 328 329 14 17
 1316 328 ?324 330 331 5 6 +0 0 324 330 21 15 326 1377 0 332 324 333 17 332 0 32
6 332 332 0 334 335 0 0 -15 333 1378 0 336 324 0 17 336 0 333 336 336 0 258 337
 0 0 +17 258 0 252 258 258 0 336 337 0 0 -16 337 1371 0 ?336 335 0 338 0 0 1 16
 335 1368 0 ?334 339 337 340 0 0 1 31 338 1390 0 337 340 341 0 +.055 .00635 -.02
3772077938641 0 1 0 0 0 1 .005 31 340 1391 0 335 0 338 0 +.055 -1734723475976805
e-33 -.023772077938641 0 1 0 0 0 1 .005 31 341 1095 0 339 338 342 0 +-.0565 .006
35 -.041499999999999 0 1 0 0 0 1 .00165 16 339 1074 0 ?343 344 335 341 0 0 1 31
 342 1094 0 344 341 345 0 +-.0565 -1734723475976805e-33 -.041499999999999 0 1 0
 0 0 1 .00165 16 344 1075 0 ?346 347 339 342 0 0 1 31 345 1054 0 347 342 348 0 +
-.0565 .00635 .054500000000001 0 1 0 0 0 1 .00165 16 347 1033 0 ?349 350 344 345
 0 0 1 31 348 1053 0 350 345 351 0 +-.0565 -1734723475976805e-33 .05450000000000
1 0 1 0 0 0 1 .00165 16 350 1034 0 ?352 353 347 348 0 0 1 31 351 1013 0 353 348
 354 0 +.0565 .00635 .054500000000001 0 1 0 0 0 1 .00165 16 353 992 0 ?355 356 3
50 351 0 0 1 31 354 1012 0 356 351 357 0 +.0565 -1734723475976805e-33 .054500000
000001 0 1 0 0 0 1 .00165 16 356 993 0 ?358 359 353 354 0 0 1 31 357 948 0 360 3
54 361 0 +-.019 -1734723475976805e-33 -.05335 0 1 0 0 0 1 .00425 16 360 925 0 ?3
62 363 359 357 0 0 1 31 361 947 0 359 357 364 0 +-.019 .00635 -.05335 0 1 0 0 0
 1 .00425 16 359 928 0 ?365 360 356 361 0 0 1 31 364 910 0 366 361 367 0 +.00700
00000000001 -1734723475976805e-33 -.05335 0 1 0 0 0 1 .00425 16 366 887 0 ?368 3
69 363 364 0 0 1 31 367 909 0 363 364 370 0 +.0070000000000001 .00635 -.05335 0
 1 0 0 0 1 .00425 16 363 890 0 ?371 366 360 367 0 0 1 31 370 872 0 372 367 373 0
 +.0070000000000001 -1734723475976805e-33 -.07935 0 1 0 0 0 1 .00425 16 372 849
 0 ?374 375 369 370 0 0 1 31 373 871 0 369 370 376 0 +.0070000000000001 .00635 -
.07935 0 1 0 0 0 1 .00425 16 369 852 0 ?377 372 366 373 0 0 1 31 376 834 0 378 3
73 379 0 +-.019 -1734723475976805e-33 -.07935 0 1 0 0 0 1 .00425 16 378 811 0 ?3
80 381 375 376 0 0 1 31 379 833 0 375 376 382 0 +-.019 .00635 -.07935 0 1 0 0 0
 1 .00425 16 375 814 0 ?383 378 372 379 0 0 1 31 382 767 0 381 379 384 0 +-.0059
9999999999989 -1402220585023716e-33 -.0727000000000008 0 -1 0 0 0 -1 .0012499999
99999986 16 381 746 0 ?385 386 378 382 0 0 1 31 384 766 0 386 382 387 0 +-.00599
999999999989 .00635 -.0727000000000008 0 -1 0 0 0 -1 .00125 16 386 747 0 ?388 38
9 381 384 0 0 1 31 387 725 0 389 384 390 0 +-.0114992613140311 -1402220585023716
e-33 -.0631750000000008 0 -1 0 0 0 -1 .001249999999999986 16 389 704 0 ?391 392
 386 387 0 0 1 31 390 724 0 392 387 393 0 +-.0114992613140311 .00635 -.063175000
0000008 0 -1 0 0 0 -1 .00125 16 392 705 0 ?394 395 389 390 0 0 1 31 393 683 0 39
5 390 396 0 +-.000500738685968702 -1402220585023716e-33 -.0631750000000008 0 -1
 0 0 0 -1 .001249999999999986 16 395 662 0 ?397 398 392 393 0 0 1 31 396 682 0 3
98 393 399 0 +-.000500738685968702 .00635 -.0631750000000008 0 -1 0 0 0 -1 .0012
5 16 398 663 0 ?400 401 395 396 0 0 1 31 399 621 0 401 396 402 0 +-.058500000000
0013 143895998899814e-33 -.09 0 -1 0 0 0 -1 .00165 16 401 600 0 ?403 404 398 399
 0 0 1 31 402 620 0 404 399 405 0 +-.0585000000000013 .00635 -.09 0 -1 0 0 0 -1
 .00165 16 404 601 0 ?406 407 401 402 0 0 1 31 405 577 0 407 402 408 0 +-.029500
00000000135 143895998899814e-33 -.09 0 -1 0 0 0 -1 .00165 16 407 556 0 ?409 410
 404 405 0 0 1 31 408 576 0 410 405 411 0 +-.02950000000000135 .00635 -.09 0 -1
 0 0 0 -1 .00165 16 410 557 0 ?412 413 407 408 0 0 1 31 411 533 0 413 408 414 0
 +.027 143895998899814e-33 -.075500000000001 0 -1 0 0 0 -1 .00165 16 413 512 0 ?
415 416 410 411 0 0 1 31 414 532 0 416 411 417 0 +.027 .00635 -.075500000000001
 0 -1 0 0 0 -1 .00165 16 416 513 0 ?418 419 413 414 0 0 1 31 417 489 0 419 414 4
20 0 +.027 143895998899814e-33 -.1045 0 -1 0 0 0 -1 .00165 16 419 468 0 ?421 422
 416 417 0 0 1 31 420 488 0 422 417 423 0 +.027 .00635 -.1045 0 -1 0 0 0 -1 .001
65 16 422 469 0 ?424 425 419 420 0 0 1 31 423 383 0 426 420 427 0 +-.00599999999
999992 .00635 -.0663500000000008 0 1 0 0 0 1 .004249999999998745 16 426 363 0 ?4
28 429 425 423 0 0 1 31 427 382 0 425 423 430 0 +-.00599999999999992 0 -.0663500
000000008 0 1 0 0 0 1 .004249999999998745 16 425 360 0 ?431 426 422 427 0 0 1 31
 430 345 0 432 427 433 0 +-.044 .00635 -.09 0 1 0 0 0 1 .01 16 432 325 0 ?434 43
5 429 430 0 0 1 31 433 344 0 429 430 436 0 +-.044 0 -.09 0 1 0 0 0 1 .01 16 429
 322 0 ?437 432 426 433 0 0 1 31 436 307 0 211 433 438 0 +.027 .00635 -.09 0 1 0
 0 0 1 .0099999999999998 16 211 287 0 ?439 134 435 436 0 0 1 31 438 306 0 435 43
6 131 0 +.027 0 -.09 0 1 0 0 0 1 .0099999999999998 16 435 284 0 ?440 211 432 438
 0 0 1 31 131 5 0 120 438 121 0 +-.044 .00635 -.09 0 1 0 0 0 1 .02 30 121 8 0 11
0 131 441 0 +-.064 .00635 -.09 182602471155452e-30 0 1 30 441 11 0 119 121 204 0
 +-.064 .00635 .0620000000000013 1 0 -542101086242752e-31 16 119 1193 0 ?31 202
 110 441 0 0 1 30 204 14 0 202 441 203 0 +.064 .00635 .0620000000000013 0 0 -1 1
6 202 1174 0 ?123 194 119 204 0 0 1 17 123 0 34 67 46 39 442 202 0 443 +17 67 0
 34 185 123 65 443 164 0 184 +17 46 0 34 123 31 44 444 162 0 442 +17 442 0 445 1
58 43 44 123 202 0 446 -17 443 0 447 448 186 39 67 164 0 0 -15 447 1275 0 443 44
9 0 17 448 0 447 73 443 56 43 159 0 0 -17 186 0 447 443 73 65 147 139 0 0 -17 73
 0 447 186 448 71 58 154 0 147 -17 58 0 170 450 171 56 73 154 0 215 +17 450 0 17
0 52 58 59 215 187 0 0 -17 215 0 445 43 158 56 450 187 0 448 +15 445 204 0 215 4
51 0 17 43 0 445 442 215 39 448 159 0 123 +17 158 0 445 215 442 59 446 156 0 450
 +17 446 0 452 444 61 44 158 156 0 0 -15 452 1296 0 444 330 0 17 444 0 452 29 44
6 11 46 162 0 0 -17 61 0 452 446 29 59 52 152 0 158 -17 29 0 452 61 444 50 24 30
 0 0 -17 52 0 170 453 450 50 61 152 0 28 +17 453 0 170 49 52 53 28 213 0 0 -17 2
8 0 26 24 168 50 453 213 0 29 +15 26 206 0 28 454 0 17 168 0 26 28 27 53 455 166
 0 453 +17 27 0 26 168 24 25 31 119 0 455 -17 455 0 331 36 55 25 168 166 0 0 -15
 331 1317 0 36 17 0 17 36 0 331 117 455 33 32 37 0 0 -17 55 0 331 455 117 53 49
 150 0 168 -17 117 0 331 55 36 47 38 118 0 0 -17 49 0 170 95 453 47 55 150 0 112
 +17 95 0 170 133 49 93 112 210 0 109 -17 112 0 108 38 109 47 95 210 0 117 +17 3
1 0 34 46 32 11 27 119 0 444 +14 454 207 456 ?451 113 26 5 457 -0 0 451 113 21 8
1 1 456 1698 240 454 458 0 328 459 460 14 451 205 459 ?183 454 445 5 461 -0 0 18
3 454 21 14 113 209 462 ?454 132 108 5 463 -0 0 454 132 21 50 457 231 0 454 461
 463 0 +-.064 .00635 .0620000000000013 -542101086242752e-31 0 -1 -1 0 5421010862
42752e-31 50 461 230 0 451 464 457 0 +.064 .00635 .0620000000000013 -1 0 0 0 0 1
 50 463 232 0 113 457 465 0 +-.064 .00635 -.09 1 0 -182602471155452e-30 -1826024
71155452e-30 0 -1 51 465 233 0 132 463 466 0 --.044 .00635 -.09 0 -1 0 .02 0 0 -
1 14 132 211 467 ?113 174 128 5 465 -0 0 113 174 21 51 466 1265 0 190 465 468 0
 +.0469999999999991 .00635 -.0551066017177982 0 1 0 .0075 0 0 1 14 190 1253 469
 ?449 319 179 5 466 -0 0 449 319 21 51 468 1286 0 449 466 18 0 +.0565 .00635 -.0
2439339828220035 0 -1 0 .0075 0 0 -1 14 449 1274 470 ?330 190 447 5 468 +0 0 330
 190 21 51 18 1307 0 330 468 6 0 +.0565 .00635 .0545000000000013 0 -1 0 .0075 0
 0 -1 14 330 1295 471 ?17 449 452 5 18 +0 0 17 449 21 81 1 471 1704 240 330 472
 0 470 473 474 80 255 1 240 475 476 9000 1 1 1 1 1 1 1 1 0 FFFFTFTFFFFFFF1 81 1
 472 1602 477 330 0 471 478 479 480 81 1 470 1703 240 449 478 0 469 471 481 81 1
 473 1705 240 183 482 0 471 483 484 82 255 1 474 921305737 14 183 203 473 ?196 4
51 182 5 464 -0 0 196 451 21 81 1 482 1578 477 183 0 473 485 486 487 81 1 483 17
06 240 196 486 0 473 488 489 82 1 484 -830733687 14 196 201 483 ?248 183 195 5 4
90 -0 0 248 183 21 81 1 486 1579 477 196 0 483 482 491 492 81 1 488 1707 240 248
 491 0 483 0 493 82 1 489 -830602615 14 248 197 488 ?232 196 234 5 494 -0 0 232
 196 21 81 1 491 1580 477 248 0 488 486 495 496 82 1 493 1745224293 80 1 477 0 4
97 8001 0 0 0 0 3 5 0 0 0 FFFFTFTFFFFFFF2 81 1 495 1581 477 232 0 247 491 241 49
8 83 255 3 496 .666666666666667 .698039215686275 .768627450980392 81 1 247 1677
 240 232 495 0 242 251 499 81 1 241 1582 477 236 0 237 495 500 501 83 3 498 .666
666666666667 .698039215686275 .768627450980392 81 1 500 1583 477 238 0 242 241 5
02 503 83 3 501 .666666666666667 .698039215686275 .768627450980392 81 1 242 1676
 240 238 500 0 237 247 504 81 1 502 1584 477 244 0 262 500 505 506 83 3 503 .666
666666666667 .698039215686275 .768627450980392 81 1 262 1680 240 244 502 0 255 2
66 507 81 1 505 1585 477 263 0 266 502 508 509 83 3 506 .666666666666667 .698039
215686275 .768627450980392 81 1 266 1681 240 263 505 0 262 270 510 81 1 508 1586
 477 267 0 270 505 511 512 83 3 509 .666666666666667 .698039215686275 .768627450
980392 81 1 270 1682 240 267 508 0 266 274 513 81 1 511 1587 477 271 0 274 508 5
14 515 83 3 512 .666666666666667 .698039215686275 .768627450980392 81 1 274 1683
 240 271 511 0 270 278 516 81 1 514 1588 477 275 0 278 511 517 518 83 3 515 .666
666666666667 .698039215686275 .768627450980392 81 1 278 1684 240 275 514 0 274 2
82 519 81 1 517 1589 477 279 0 282 514 520 521 83 3 518 .666666666666667 .698039
215686275 .768627450980392 81 1 282 1685 240 279 517 0 278 286 522 81 1 520 1590
 477 283 0 286 517 523 524 83 3 521 .666666666666667 .698039215686275 .768627450
980392 81 1 286 1686 240 283 520 0 282 290 525 81 1 523 1591 477 287 0 290 520 5
26 527 83 3 524 .666666666666667 .698039215686275 .768627450980392 81 1 290 1687
 240 287 523 0 286 294 528 81 1 526 1592 477 291 0 294 523 529 530 83 3 527 .666
666666666667 .698039215686275 .768627450980392 81 1 294 1688 240 291 526 0 290 2
98 531 81 1 529 1593 477 295 0 298 526 532 533 83 3 530 .666666666666667 .698039
215686275 .768627450980392 81 1 298 1689 240 295 529 0 294 302 534 81 1 532 1594
 477 299 0 302 529 535 536 83 3 533 .666666666666667 .698039215686275 .768627450
980392 81 1 302 1690 240 299 532 0 298 306 537 81 1 535 1595 477 303 0 306 532 5
38 539 83 3 536 .666666666666667 .698039215686275 .768627450980392 81 1 306 1691
 240 303 535 0 302 310 540 81 1 538 1596 477 307 0 310 535 541 542 83 3 539 .666
666666666667 .698039215686275 .768627450980392 81 1 310 1692 240 307 538 0 306 3
14 543 81 1 541 1597 477 311 0 314 538 544 545 83 3 542 .666666666666667 .698039
215686275 .768627450980392 81 1 314 1693 240 311 541 0 310 318 546 81 1 544 1598
 477 315 0 318 541 547 548 83 3 545 .666666666666667 .698039215686275 .768627450
980392 81 1 318 1694 240 315 544 0 314 322 549 81 1 547 1599 477 319 0 322 544 5
50 551 83 3 548 .666666666666667 .698039215686275 .768627450980392 81 1 322 1695
 240 319 547 0 318 325 552 81 1 550 1600 477 190 0 469 547 478 553 83 3 551 .666
666666666667 .698039215686275 .768627450980392 81 1 469 1702 240 190 550 0 467 4
70 554 81 1 478 1601 477 449 0 470 550 472 555 83 3 553 .666666666666667 .698039
215686275 .768627450980392 83 3 555 .666666666666667 .698039215686275 .768627450
980392 81 1 467 1701 240 132 556 0 462 469 557 82 1 554 917373577 81 1 556 1574
 477 132 0 467 558 559 560 81 1 462 1700 240 113 559 0 459 467 561 82 1 557 1747
059301 81 1 559 1575 477 113 0 462 556 458 562 81 1 459 1699 240 451 485 0 456 4
62 563 82 1 561 -831126903 81 1 485 1577 477 451 0 459 458 482 564 82 1 563 -830
864759 81 1 458 1576 477 454 0 456 559 485 565 83 3 564 .666666666666667 .698039
215686275 .768627450980392 83 3 565 .666666666666667 .698039215686275 .768627450
980392 83 3 562 .666666666666667 .698039215686275 .768627450980392 81 1 558 1573
 477 174 0 255 254 556 566 83 3 560 .666666666666667 .698039215686275 .768627450
980392 81 1 255 1679 240 174 558 0 251 262 567 81 1 254 1572 477 15 0 251 0 558
 568 83 3 566 .666666666666667 .698039215686275 .768627450980392 83 3 568 .66666
6666666667 .698039215686275 .768627450980392 82 1 567 -1817116011 82 1 552 90420
0840 82 1 549 888341128 82 1 546 872415880 82 1 543 -551550340 82 1 540 -5554825
00 82 1 537 -559414660 82 1 534 -563412356 82 1 531 1888289383 82 1 528 18723641
35 82 1 525 1856373351 82 1 522 1828979302 82 1 519 1813054054 82 1 516 17971943
42 82 1 513 1781269094 82 1 510 1757741669 82 1 507 1753678437 82 1 504 17213691
89 82 1 499 1744962149 79 255 15 497 SDL/TYSA_COLOUR15 234 196 0 89 248 0 51 494
 226 0 248 249 490 0 -.027 .00635 -.09 0 -1 0 .02 0 0 -1 51 249 225 0 232 239 49
4 0 +.00563250300239705 .00635 -.1166879951961664 0 -1 0 .0141879951961668 0 0 -
1 50 490 228 0 196 494 464 0 +.03949999999999905 .00635 -.052 -1 0 4529938154433
68e-29 452993815443368e-29 0 1 50 464 229 0 183 490 461 0 +.03949999999999905 .0
0635 -.052 -.707106781186555 0 .70710678118654 .70710678118654 0 .70710678118655
5 17 89 0 234 230 141 87 177 218 0 227 +17 141 0 234 89 197 90 193 136 0 0 +17 1
97 0 234 141 230 104 103 198 0 0 -17 103 0 34 100 106 101 197 198 0 230 +17 100
 0 34 97 103 98 229 200 0 233 +83 3 492 .666666666666667 .698039215686275 .76862
7450980392 83 3 487 .666666666666667 .698039215686275 .768627450980392 82 1 481
 919339657 81 1 479 1603 477 17 0 328 472 327 569 83 3 480 .666666666666667 .698
039215686275 .768627450980392 81 1 328 1697 240 17 479 0 325 456 570 81 1 327 16
04 477 324 0 325 479 0 571 83 3 569 .666666666666667 .698039215686275 .768627450
980392 83 3 571 .666666666666667 .698039215686275 .768627450980392 82 1 570 9232
71817 79 14 476 SWEntUnchanged82 1 460 -830995831 17 184 0 182 147 64 65 185 194
 0 186 -17 440 0 175 440 440 0 572 435 0 0 +15 175 273 0 440 174 573 17 572 0 57
4 572 572 0 440 435 0 0 -15 574 294 0 572 238 0 15 573 311 0 437 174 575 17 437
 0 573 437 437 0 576 429 0 0 +15 575 349 0 431 174 0 17 431 0 575 431 431 0 577
 425 0 0 +17 577 0 578 577 577 0 431 425 0 0 -15 578 370 0 577 263 0 17 576 0 57
9 576 576 0 437 429 0 0 -15 579 332 0 576 244 0 17 439 0 245 439 439 0 580 211 0
 0 +15 245 293 0 439 238 574 17 580 0 124 580 580 0 439 211 0 0 -15 124 278 0 58
0 15 581 15 581 354 0 582 15 0 17 582 0 581 582 582 0 428 426 0 0 -17 428 0 268
 428 428 0 582 426 0 0 +15 268 369 0 428 263 578 17 434 0 264 434 434 0 583 432
 0 0 +15 264 331 0 434 244 579 17 583 0 584 583 583 0 434 432 0 0 -15 584 316 0
 583 15 34 17 424 0 585 424 424 0 586 422 0 0 +15 585 459 0 424 15 584 17 586 0
 272 586 586 0 424 422 0 0 -15 272 481 0 586 267 587 15 587 482 0 421 267 0 17 4
21 0 587 421 421 0 588 419 0 0 +17 588 0 589 588 588 0 421 419 0 0 -15 589 448 0
 588 174 170 17 418 0 590 418 418 0 591 416 0 0 +15 590 503 0 418 15 585 17 591
 0 276 591 591 0 418 416 0 0 -15 276 525 0 591 271 592 15 592 526 0 415 271 0 17
 415 0 592 415 415 0 593 413 0 0 +17 593 0 594 593 593 0 415 413 0 0 -15 594 492
 0 593 174 589 17 412 0 595 412 412 0 596 410 0 0 +15 595 547 0 412 15 590 17 59
6 0 280 596 596 0 412 410 0 0 -15 280 569 0 596 275 597 15 597 570 0 409 275 0 1
7 409 0 597 409 409 0 598 407 0 0 +17 598 0 599 598 598 0 409 407 0 0 -15 599 53
6 0 598 174 594 17 406 0 600 406 406 0 601 404 0 0 +15 600 591 0 406 15 595 17 6
01 0 284 601 601 0 406 404 0 0 -15 284 613 0 601 279 602 15 602 614 0 403 279 0
 17 403 0 602 403 403 0 603 401 0 0 +17 603 0 604 603 603 0 403 401 0 0 -15 604
 580 0 603 174 599 17 400 0 605 400 400 0 606 398 0 0 +15 605 654 0 400 15 600 1
7 606 0 288 606 606 0 400 398 0 0 -15 288 675 0 606 283 607 15 607 676 0 397 283
 0 17 397 0 607 397 397 0 608 395 0 0 +17 608 0 609 608 608 0 397 395 0 0 -15 60
9 644 0 608 174 604 17 394 0 610 394 394 0 611 392 0 0 +15 610 696 0 394 15 605
 17 611 0 292 611 611 0 394 392 0 0 -15 292 717 0 611 287 612 15 612 718 0 391 2
87 0 17 391 0 612 391 391 0 613 389 0 0 +17 613 0 614 613 613 0 391 389 0 0 -15
 614 686 0 613 174 609 17 388 0 615 388 388 0 616 386 0 0 +15 615 738 0 388 15 6
10 17 616 0 296 616 616 0 388 386 0 0 -15 296 759 0 616 291 617 15 617 760 0 385
 291 0 17 385 0 617 385 385 0 618 381 0 0 +17 618 0 619 618 618 0 385 381 0 0 -1
5 619 728 0 618 174 614 17 383 0 620 383 383 0 621 375 0 0 +15 620 821 0 383 295
 0 17 621 0 622 621 621 0 383 375 0 0 -15 622 806 0 621 15 615 17 380 0 623 380
 380 0 624 378 0 0 +15 623 799 0 380 174 619 17 624 0 300 624 624 0 380 378 0 0
 -15 300 820 0 624 295 620 17 377 0 625 377 377 0 626 369 0 0 +15 625 859 0 377
 299 0 17 626 0 627 626 626 0 377 369 0 0 -15 627 844 0 626 15 622 17 374 0 628
 374 374 0 629 372 0 0 +15 628 837 0 374 174 623 17 629 0 304 629 629 0 374 372
 0 0 -15 304 858 0 629 299 625 17 371 0 630 371 371 0 631 363 0 0 +15 630 897 0
 371 303 0 17 631 0 632 631 631 0 371 363 0 0 -15 632 882 0 631 15 627 17 368 0
 633 368 368 0 634 366 0 0 +15 633 875 0 368 174 628 17 634 0 308 634 634 0 368
 366 0 0 -15 308 896 0 634 303 630 17 365 0 635 365 365 0 636 359 0 0 +15 635 93
5 0 365 307 0 17 636 0 637 636 636 0 365 359 0 0 -15 637 920 0 636 15 632 17 362
 0 638 362 362 0 639 360 0 0 +15 638 913 0 362 174 633 17 639 0 312 639 639 0 36
2 360 0 0 -15 312 934 0 639 307 635 17 358 0 640 358 358 0 641 356 0 0 +15 640 9
83 0 358 174 638 17 641 0 316 641 641 0 358 356 0 0 -15 316 1005 0 641 311 642 1
5 642 1006 0 355 311 0 17 355 0 642 355 355 0 643 353 0 0 +17 643 0 644 643 643
 0 355 353 0 0 -15 644 976 0 643 15 637 17 352 0 645 352 352 0 646 350 0 0 +15 6
45 1025 0 352 174 640 17 646 0 320 646 646 0 352 350 0 0 -15 320 1046 0 646 315
 647 15 647 1047 0 349 315 0 17 349 0 647 349 349 0 648 347 0 0 +17 648 0 649 64
8 648 0 349 347 0 0 -15 649 1017 0 648 15 644 17 346 0 650 346 346 0 651 344 0 0
 +15 650 1066 0 346 174 645 17 651 0 323 651 651 0 346 344 0 0 -15 323 1087 0 65
1 319 652 15 652 1088 0 343 319 0 17 343 0 652 343 343 0 653 339 0 0 +17 653 0 2
59 653 653 0 343 339 0 0 -15 259 1058 0 653 15 649 17 334 0 257 334 334 0 332 33
5 0 0 +15 257 1356 0 334 174 650 82 1 329 1880621717 82 1 256 -1817247083 82 1 2
43 1744437861 17 92 0 195 193 138 90 172 178 0 177 +19 16 235 0 1 0 9 5 S0 74 4
 CI16 index_map_offset0 0 1 dCCZ20 14 3 0 0 488 2 327 0 0 0 0 0 0 0 0 0 0 0 0 0
 0 0 0 0 80 2 12 654 655 8004 0 0 0 0 3 5 0 0 0 FFTFFFFFFFFFFF2 3 83 1 13 1e3 79
 16 655 SDL/TYSA_DENSITY1 0 
